<svg viewBox="0 0 380 170" xmlns="http://www.w3.org/2000/svg">
  <defs>
    <linearGradient id="skyC" x1="0" y1="0" x2="0" y2="1">
      <stop offset="0" stop-color="#ffe3f3"/>
      <stop offset="1" stop-color="#bcd0ff"/>
    </linearGradient>
  </defs>
  <rect width="380" height="170" fill="url(#skyC)"/>
  <circle cx="320" cy="44" r="22" fill="#fff1b8"/>
  <!-- 雲 -->
  <g fill="#ffffff" opacity=".85">
    <ellipse cx="70" cy="40" rx="26" ry="13"/><ellipse cx="95" cy="44" rx="20" ry="11"/>
    <ellipse cx="250" cy="30" rx="22" ry="11"/><ellipse cx="270" cy="34" rx="16" ry="9"/>
  </g>
  <!-- 草地 -->
  <rect y="138" width="380" height="32" fill="#9bdcae"/>
  <!-- 城堡 -->
  <g>
    <rect x="150" y="70" width="80" height="68" fill="#d8ccef"/>
    <rect x="134" y="56" width="24" height="82" fill="#c5b6e6"/>
    <rect x="222" y="56" width="24" height="82" fill="#c5b6e6"/>
    <!-- 城垛 -->
    <g fill="#c5b6e6">
      <rect x="134" y="50" width="7" height="8"/><rect x="146" y="50" width="7" height="8"/>
      <rect x="222" y="50" width="7" height="8"/><rect x="234" y="50" width="7" height="8"/>
    </g>
    <!-- 尖頂 -->
    <polygon points="134,56 146,32 158,56" fill="#ff8fb1"/>
    <polygon points="222,56 234,32 246,56" fill="#ff8fb1"/>
    <polygon points="150,70 190,46 230,70" fill="#ff8fb1"/>
    <!-- 旗子 -->
    <line x1="190" y1="46" x2="190" y2="32" stroke="#9a7fd0" stroke-width="2"/>
    <polygon points="190,33 204,37 190,41" fill="#ffd166"/>
    <!-- 門窗 -->
    <rect x="180" y="104" width="20" height="34" rx="10" fill="#7c66ac"/>
    <circle cx="143" cy="78" r="4" fill="#7c66ac"/>
    <circle cx="237" cy="78" r="4" fill="#7c66ac"/>
  </g>
</svg>
