<svg viewBox="0 0 380 170" xmlns="http://www.w3.org/2000/svg">
  <defs><linearGradient id="fg" x1="0" y1="0" x2="0" y2="1">
    <stop offset="0" stop-color="#cdeecb"/><stop offset="1" stop-color="#7ec98f"/></linearGradient></defs>
  <rect width="380" height="170" fill="url(#fg)"/>
  <circle cx="330" cy="42" r="22" fill="#ffe27a"/>
  <rect y="134" width="380" height="36" fill="#8fd49e"/>
  <g>
    <rect x="56" y="96" width="10" height="40" fill="#9a6b3f"/>
    <polygon points="61,40 30,100 92,100" fill="#3a9d63"/><polygon points="61,62 36,110 86,110" fill="#2f8a55"/>
    <rect x="150" y="104" width="9" height="32" fill="#9a6b3f"/>
    <polygon points="154,60 128,112 180,112" fill="#3a9d63"/>
    <rect x="290" y="92" width="11" height="44" fill="#9a6b3f"/>
    <polygon points="295,34 262,98 328,98" fill="#37a86b"/><polygon points="295,58 268,108 322,108" fill="#2f8a55"/>
  </g>
  <circle cx="120" cy="128" r="5" fill="#ff7eb3"/><circle cx="210" cy="130" r="5" fill="#ffd166"/>
  <circle cx="250" cy="126" r="5" fill="#ff7eb3"/>
</svg>
