<svg viewBox="0 0 380 170" xmlns="http://www.w3.org/2000/svg">
  <defs><linearGradient id="sng" x1="0" y1="0" x2="0" y2="1">
    <stop offset="0" stop-color="#eaf5ff"/><stop offset="1" stop-color="#c4ddf5"/></linearGradient></defs>
  <rect width="380" height="170" fill="url(#sng)"/>
  <circle cx="328" cy="42" r="18" fill="#fff3c4"/>
  <g fill="#ffffff"><circle cx="60" cy="40" r="3"/><circle cx="120" cy="30" r="2.5"/><circle cx="200" cy="46" r="3"/><circle cx="260" cy="34" r="2.5"/><circle cx="300" cy="60" r="3"/><circle cx="100" cy="70" r="2.5"/></g>
  <path d="M0 128 Q95 96 190 128 T380 128 V170 H0 Z" fill="#ffffff"/>
  <path d="M0 142 Q120 120 240 142 T380 142 V170 H0 Z" fill="#eef6ff"/>
  <!-- 雪人 -->
  <g><circle cx="150" cy="126" r="18" fill="#ffffff" stroke="#d6e6f5" stroke-width="2"/>
     <circle cx="150" cy="100" r="13" fill="#ffffff" stroke="#d6e6f5" stroke-width="2"/>
     <circle cx="146" cy="98" r="1.8" fill="#333"/><circle cx="154" cy="98" r="1.8" fill="#333"/>
     <polygon points="150,102 160,104 150,106" fill="#ff9a5c"/>
     <circle cx="150" cy="122" r="2" fill="#333"/><circle cx="150" cy="130" r="2" fill="#333"/></g>
  <!-- 松樹 -->
  <polygon points="300,128 282,128 291,104" fill="#5fa874"/><polygon points="298,116 284,116 291,96" fill="#4f9866"/>
</svg>
