<svg viewBox="0 0 160 300" xmlns="http://www.w3.org/2000/svg">
  <ellipse cx="80" cy="288" rx="40" ry="8" fill="#000" opacity=".12"/>
  <!-- 腿 -->
  <rect x="62" y="214" width="16" height="66" rx="8" fill="#e8edf5"/><rect x="82" y="214" width="16" height="66" rx="8" fill="#e8edf5"/>
  <rect x="60" y="272" width="20" height="12" rx="4" fill="#9aa4ba"/><rect x="80" y="272" width="20" height="12" rx="4" fill="#9aa4ba"/>
  <!-- 身體 -->
  <rect x="48" y="138" width="64" height="92" rx="22" fill="#f0f4fa" stroke="#cdd6e6" stroke-width="2"/>
  <rect x="66" y="170" width="28" height="22" rx="5" fill="#7fd0ff"/>
  <circle cx="80" cy="208" r="7" fill="#ff7eb3"/>
  <!-- 手臂 -->
  <rect x="28" y="146" width="18" height="54" rx="9" fill="#e8edf5"/><rect x="114" y="146" width="18" height="54" rx="9" fill="#e8edf5"/>
  <circle cx="37" cy="204" r="10" fill="#dbe2ee"/><circle cx="123" cy="204" r="10" fill="#dbe2ee"/>
  <!-- 頭盔 -->
  <circle cx="80" cy="92" r="42" fill="#f0f4fa" stroke="#cdd6e6" stroke-width="3"/>
  <path d="M48 92 a32 32 0 0 1 64 0 a32 22 0 0 1 -64 0 Z" fill="#2a3a5a"/>
  <ellipse cx="68" cy="84" rx="10" ry="14" fill="#7fd0ff" opacity=".7"/>
  <!-- 臉透出 -->
  <circle cx="80" cy="94" r="16" fill="#ffe0c2" opacity=".95"/>
  <circle cx="74" cy="92" r="2.6" fill="#3a2a1a"/><circle cx="86" cy="92" r="2.6" fill="#3a2a1a"/>
  <path d="M75 100 Q80 104 85 100" stroke="#d4516b" stroke-width="2" fill="none" stroke-linecap="round"/>
</svg>
