<svg viewBox="0 0 160 300" xmlns="http://www.w3.org/2000/svg">
  <ellipse cx="80" cy="288" rx="42" ry="8" fill="#000" opacity=".12"/>
  <!-- 腳 -->
  <g stroke="#3a2a1a" stroke-width="4" stroke-linecap="round">
    <line x1="44" y1="200" x2="24" y2="196"/><line x1="44" y1="220" x2="22" y2="224"/><line x1="44" y1="240" x2="26" y2="252"/>
    <line x1="116" y1="200" x2="136" y2="196"/><line x1="116" y1="220" x2="138" y2="224"/><line x1="116" y1="240" x2="134" y2="252"/></g>
  <!-- 身體（瓢蟲） -->
  <ellipse cx="80" cy="216" rx="48" ry="56" fill="#e0566f" stroke="#c33a52" stroke-width="2"/>
  <line x1="80" y1="166" x2="80" y2="270" stroke="#3a2a1a" stroke-width="3"/>
  <g fill="#3a2a1a"><circle cx="60" cy="196" r="7"/><circle cx="100" cy="196" r="7"/><circle cx="56" cy="232" r="6"/><circle cx="104" cy="232" r="6"/><circle cx="80" cy="248" r="6"/></g>
  <!-- 頭 -->
  <circle cx="80" cy="130" r="30" fill="#2a2a2a"/>
  <circle cx="70" cy="128" r="7" fill="#fff"/><circle cx="90" cy="128" r="7" fill="#fff"/>
  <circle cx="71" cy="129" r="3.5" fill="#3a2a1a"/><circle cx="89" cy="129" r="3.5" fill="#3a2a1a"/>
  <path d="M70 142 Q80 150 90 142" stroke="#fff" stroke-width="2.4" fill="none" stroke-linecap="round"/>
  <!-- 觸角 -->
  <g stroke="#2a2a2a" stroke-width="3" stroke-linecap="round"><line x1="66" y1="104" x2="58" y2="86"/><line x1="94" y1="104" x2="102" y2="86"/></g>
  <circle cx="57" cy="84" r="4" fill="#e0566f"/><circle cx="103" cy="84" r="4" fill="#e0566f"/>
</svg>
