<svg viewBox="0 0 160 300" xmlns="http://www.w3.org/2000/svg">
  <ellipse cx="80" cy="288" rx="38" ry="8" fill="#000" opacity=".12"/>
  <!-- 腳 -->
  <rect x="58" y="252" width="16" height="28" rx="4" fill="#8a93a8"/><rect x="86" y="252" width="16" height="28" rx="4" fill="#8a93a8"/>
  <!-- 身體 -->
  <rect x="44" y="150" width="72" height="104" rx="12" fill="#bfc8d8" stroke="#9aa4ba" stroke-width="2"/>
  <rect x="60" y="170" width="40" height="30" rx="5" fill="#7fd0ff"/>
  <circle cx="70" cy="185" r="4" fill="#2a83c9"/><circle cx="90" cy="185" r="4" fill="#2a83c9"/>
  <circle cx="80" cy="220" r="9" fill="#ffd166" stroke="#e0a800" stroke-width="2"/>
  <!-- 手臂 -->
  <rect x="26" y="158" width="14" height="48" rx="7" fill="#a8b2c6"/><rect x="120" y="158" width="14" height="48" rx="7" fill="#a8b2c6"/>
  <circle cx="33" cy="210" r="9" fill="#8a93a8"/><circle cx="127" cy="210" r="9" fill="#8a93a8"/>
  <!-- 頭 -->
  <rect x="52" y="78" width="56" height="56" rx="12" fill="#d4dbe8" stroke="#9aa4ba" stroke-width="2"/>
  <circle cx="70" cy="106" r="7" fill="#3ddc84"/><circle cx="90" cy="106" r="7" fill="#3ddc84"/>
  <circle cx="70" cy="106" r="3" fill="#177a44"/><circle cx="90" cy="106" r="3" fill="#177a44"/>
  <rect x="68" y="120" width="24" height="5" rx="2.5" fill="#9aa4ba"/>
  <!-- 天線 -->
  <line x1="80" y1="78" x2="80" y2="60" stroke="#9aa4ba" stroke-width="3"/><circle cx="80" cy="56" r="6" fill="#ff7eb3"/>
</svg>
